<svg width="120" height="40" viewBox="0 0 120 40" fill="none" xmlns="http://www.w3.org/2000/svg">
  <path d="M20 0C8.954 0 0 8.954 0 20C0 31.046 8.954 40 20 40C31.046 40 40 31.046 40 20C40 8.954 31.046 0 20 0ZM20 30C14.477 30 10 25.523 10 20C10 14.477 14.477 10 20 10C25.523 10 30 14.477 30 20C30 25.523 25.523 30 20 30Z" fill="#3B82F6"/>
  <path d="M50 10H55C58.866 10 62 13.134 62 17V23C62 26.866 58.866 30 55 30H50V10ZM55 25C56.105 25 57 24.105 57 23V17C57 15.895 56.105 15 55 15H55V25H55Z" fill="white"/>
  <path d="M65 10H70C73.866 10 77 13.134 77 17V23C77 26.866 73.866 30 70 30H65V10ZM70 25C71.105 25 72 24.105 72 23V17C72 15.895 71.105 15 70 15H70V25H70Z" fill="white"/>
  <path d="M80 10H95V15H90V30H85V15H80V10Z" fill="white"/>
  <path d="M97 10H112V15H107V30H102V15H97V10Z" fill="white"/>
</svg> 